<svg xmlns="http://www.w3.org/2000/svg" xmlns:xlink="http://www.w3.org/1999/xlink" viewBox="0 0 313.77 172.33"><defs><style>.cls-1{fill:url(#linear-gradient);}.cls-2{fill:url(#radial-gradient);}.cls-3{fill:url(#radial-gradient-2);}.cls-4{fill:url(#linear-gradient-2);}.cls-5{fill:url(#linear-gradient-3);}.cls-6{fill:url(#linear-gradient-4);}.cls-7{fill:url(#radial-gradient-3);}.cls-8{fill:url(#radial-gradient-4);}.cls-9{fill:url(#radial-gradient-5);}.cls-10{fill:url(#radial-gradient-6);}</style><linearGradient id="linear-gradient" x1="98.9" y1="95.72" x2="105.99" y2="95.72" gradientUnits="userSpaceOnUse"><stop offset="0" stop-color="#8ecea5"/><stop offset="0.17" stop-color="#64c3a4"/><stop offset="1" stop-color="#098c8d"/></linearGradient><radialGradient id="radial-gradient" cx="-210.27" cy="71.37" r="21.47" gradientTransform="translate(261.69 29.78) scale(0.82)" gradientUnits="userSpaceOnUse"><stop offset="0.51" stop-color="#8ecea5"/><stop offset="0.67" stop-color="#64c3a4"/><stop offset="1" stop-color="#099"/></radialGradient><radialGradient id="radial-gradient-2" cx="-252.43" cy="71.5" r="21.51" xlink:href="#radial-gradient"/><linearGradient id="linear-gradient-2" x1="153.38" y1="88.64" x2="160.47" y2="88.64" xlink:href="#linear-gradient"/><linearGradient id="linear-gradient-3" x1="153.38" y1="63.85" x2="160.47" y2="63.85" xlink:href="#linear-gradient"/><linearGradient id="linear-gradient-4" x1="139.24" y1="72.71" x2="146.33" y2="72.71" xlink:href="#linear-gradient"/><radialGradient id="radial-gradient-3" cx="-161.36" cy="71.37" r="21.47" xlink:href="#radial-gradient"/><radialGradient id="radial-gradient-4" cx="-92.4" cy="71.38" r="21.47" xlink:href="#radial-gradient"/><radialGradient id="radial-gradient-5" cx="-40.27" cy="71.38" r="21.46" xlink:href="#radial-gradient"/><radialGradient id="radial-gradient-6" cx="-5.93" cy="71.38" r="21.47" xlink:href="#radial-gradient"/></defs><title>Artboard 7</title><g id="Printer_Marks" data-name="Printer Marks"><path class="cls-1" d="M102.44,106.34a3.54,3.54,0,0,1-3.54-3.54V88.64a3.55,3.55,0,0,1,7.09,0V102.8A3.54,3.54,0,0,1,102.44,106.34Z"/><path class="cls-2" d="M88.28,106.34A17.7,17.7,0,1,1,106,88.64,17.72,17.72,0,0,1,88.28,106.34Zm0-28.32A10.62,10.62,0,1,0,98.9,88.64,10.63,10.63,0,0,0,88.28,78Z"/><path class="cls-3" d="M53.61,106.34A17.7,17.7,0,1,1,66.13,76.12a3.54,3.54,0,1,1-5,5A10.52,10.52,0,0,0,53.61,78a10.62,10.62,0,1,0,0,21.24,10.52,10.52,0,0,0,7.51-3.11,3.54,3.54,0,1,1,5,5A17.59,17.59,0,0,1,53.61,106.34Z"/><path class="cls-4" d="M156.93,106.34a3.54,3.54,0,0,1-3.55-3.54V74.48a3.55,3.55,0,0,1,7.09,0V102.8A3.54,3.54,0,0,1,156.93,106.34Z"/><path class="cls-5" d="M156.93,67.39a3.53,3.53,0,0,1-3.55-3.54,3.54,3.54,0,0,1,6.05-2.49,3.56,3.56,0,0,1,1,2.49,3.61,3.61,0,0,1-1,2.51A3.57,3.57,0,0,1,156.93,67.39Z"/><path class="cls-6" d="M142.78,92.18a3.55,3.55,0,0,1-3.54-3.54V56.77a3.55,3.55,0,0,1,7.09,0V88.64A3.55,3.55,0,0,1,142.78,92.18Z"/><path class="cls-7" d="M128.62,106.34a17.7,17.7,0,1,1,17.71-17.7A17.72,17.72,0,0,1,128.62,106.34Zm0-28.32a10.62,10.62,0,1,0,10.62,10.62A10.63,10.63,0,0,0,128.62,78Z"/><path class="cls-8" d="M185.49,106.34a17.72,17.72,0,0,1-17.7-17.7V74.48a3.54,3.54,0,1,1,7.08,0V88.64a10.62,10.62,0,0,0,21.24,0V74.48a3.54,3.54,0,0,1,7.08,0V88.64A17.72,17.72,0,0,1,185.49,106.34Z"/><path class="cls-9" d="M214.32,106.34a3.53,3.53,0,0,1-3.54-3.54V88.64a17.7,17.7,0,0,1,35.4,0,3.54,3.54,0,0,1-7.08,0,10.62,10.62,0,0,0-21.24,0V102.8A3.54,3.54,0,0,1,214.32,106.34Z"/><path class="cls-10" d="M271,106.34a3.53,3.53,0,0,1-3.54-3.54V88.64a10.63,10.63,0,0,0-21.25,0V102.8a3.54,3.54,0,0,1-7.08,0V88.64a17.71,17.71,0,0,1,35.41,0V102.8A3.54,3.54,0,0,1,271,106.34Z"/></g></svg>