<svg xmlns="http://www.w3.org/2000/svg" width="48" height="48" viewBox="0 0 48 48" fill="none">
  <rect width="48" height="48" rx="8" fill="#0D9488"/>
  <path d="M16 16C16 14.8954 16.8954 14 18 14H30C31.1046 14 32 14.8954 32 16V32C32 33.1046 31.1046 34 30 34H18C16.8954 34 16 33.1046 16 32V16Z" fill="#F0FDFA"/>
  <path d="M24 20C24.5523 20 25 19.5523 25 19C25 18.4477 24.5523 18 24 18C23.4477 18 23 18.4477 23 19C23 19.5523 23.4477 20 24 20Z" fill="#0D9488"/>
  <path d="M24 25C24.5523 25 25 24.5523 25 24C25 23.4477 24.5523 23 24 23C23.4477 23 23 23.4477 23 24C23 24.5523 23.4477 25 24 25Z" fill="#0D9488"/>
  <path d="M24 30C24.5523 30 25 29.5523 25 29C25 28.4477 24.5523 28 24 28C23.4477 28 23 28.4477 23 29C23 29.5523 23.4477 30 24 30Z" fill="#0D9488"/>
</svg>